M48
; DRILL file {KiCad (6.0.6)} date Sat Sep  3 14:28:01 2022
; FORMAT={-:-/ absolute / metric / decimal}
; #@! TF.CreationDate,2022-09-03T14:28:01-07:00
; #@! TF.GenerationSoftware,Kicad,Pcbnew,(6.0.6)
; #@! TF.FileFunction,Plated,1,2,PTH
FMAT,2
METRIC
; #@! TA.AperFunction,Plated,PTH,ComponentDrill
T1C0.350
; #@! TA.AperFunction,Plated,PTH,ViaDrill
T2C0.400
; #@! TA.AperFunction,Plated,PTH,ComponentDrill
T3C0.600
; #@! TA.AperFunction,Plated,PTH,ComponentDrill
T4C1.000
; #@! TA.AperFunction,Plated,PTH,ComponentDrill
T5C1.040
; #@! TA.AperFunction,Plated,PTH,ComponentDrill
T6C1.524
%
G90
G05
T1
X316.137Y-106.587
X316.137Y-107.862
X316.137Y-109.137
X317.412Y-106.587
X317.412Y-107.862
X317.412Y-109.137
X318.688Y-106.587
X318.688Y-107.862
X318.688Y-109.137
T2
X75.244Y-108.18
X182.4Y-66.65
X203.679Y-47.407
X203.679Y-48.417
X203.679Y-49.438
X203.679Y-57.987
X203.679Y-60.237
X203.679Y-62.487
X203.679Y-63.487
X205.929Y-52.044
X208.749Y-53.045
X208.749Y-60.237
X210.249Y-53.045
X211.749Y-53.045
X211.749Y-60.237
X214.569Y-52.044
X216.819Y-47.438
X216.819Y-48.417
X216.819Y-49.438
X216.819Y-57.987
X216.819Y-60.237
X216.819Y-62.487
X216.819Y-63.487
X233.35Y-61.887
X289.556Y-123.8
X291.938Y-85.7
X302.227Y-86.675
X302.227Y-88.675
X307.024Y-86.675
X307.024Y-88.675
X309.363Y-101.425
X309.363Y-102.425
X309.363Y-103.425
X309.363Y-104.425
X309.363Y-108.862
X309.842Y-118.867
X310.842Y-118.867
X311.842Y-118.867
X312.322Y-104.425
X313.912Y-98.817
X314.19Y-118.867
X314.912Y-98.817
X315.912Y-96.432
X316.012Y-112.4
X316.912Y-96.432
X317.912Y-96.432
X318.912Y-96.432
X319.662Y-118.867
X319.912Y-98.817
X320.512Y-80.938
X320.912Y-98.817
X322.502Y-104.425
X325.462Y-104.425
X325.462Y-108.862
X336.462Y-89.644
X336.462Y-93.506
X336.462Y-94.466
X339.562Y-123.8
T4
X329.462Y-67.263
X329.462Y-72.263
X343.962Y-67.263
X343.962Y-69.763
X343.962Y-72.263
X353.012Y-53.237
X353.012Y-67.737
X355.512Y-67.737
X358.012Y-53.237
X358.012Y-67.737
T5
X66.111Y-108.18
X68.651Y-108.18
X70.874Y-108.18
X73.414Y-108.18
T6
X61.19Y-62.46
X61.19Y-138.66
X63.571Y-100.56
X63.571Y-119.61
X63.571Y-138.66
X65.953Y-81.51
X65.953Y-138.66
X67.54Y-59.92
X67.54Y-136.12
X68.334Y-100.56
X69.921Y-98.02
X69.921Y-117.07
X69.921Y-136.12
X72.302Y-78.97
X72.302Y-136.12
X73.096Y-119.61
X74.684Y-98.02
X79.446Y-117.07
X80.24Y-62.46
X80.24Y-138.66
X85.002Y-119.61
X85.002Y-138.66
X86.59Y-59.92
X86.59Y-136.12
X89.765Y-81.51
X91.352Y-117.07
X91.352Y-136.12
X94.527Y-100.56
X94.527Y-138.66
X96.115Y-78.97
X99.29Y-62.46
X99.29Y-138.66
X100.877Y-98.02
X100.877Y-136.12
X104.052Y-119.61
X105.64Y-59.92
X105.64Y-136.12
X106.434Y-138.66
X108.815Y-81.51
X110.402Y-117.07
X112.784Y-136.12
X113.578Y-100.56
X115.165Y-78.97
X118.34Y-62.46
X119.927Y-98.02
X123.102Y-119.61
X124.69Y-59.92
X127.865Y-81.51
X129.452Y-117.07
X130.246Y-138.66
X132.627Y-100.56
X134.215Y-78.97
X136.596Y-136.12
X137.39Y-62.46
X138.977Y-98.02
X142.153Y-119.61
X143.74Y-59.92
X146.915Y-81.51
X146.915Y-138.66
X148.502Y-117.07
X151.677Y-100.56
X153.265Y-78.97
X153.265Y-136.12
X156.44Y-62.46
X158.028Y-98.02
X158.821Y-138.66
X161.202Y-119.61
X162.79Y-59.92
X165.171Y-136.12
X165.965Y-81.51
X167.552Y-117.07
X170.727Y-100.56
X172.315Y-78.97
X175.49Y-62.46
X175.49Y-138.66
X177.077Y-98.02
X180.252Y-119.61
X181.84Y-59.92
X181.84Y-136.12
X185.015Y-81.51
X185.015Y-138.66
X186.602Y-117.07
X189.778Y-100.56
X191.365Y-78.97
X191.365Y-136.12
X192.159Y-138.66
X196.127Y-98.02
X198.509Y-136.12
X199.302Y-119.61
X204.065Y-81.51
X204.065Y-138.66
X205.653Y-117.07
X208.827Y-100.56
X210.415Y-78.97
X210.415Y-136.12
X215.177Y-98.02
X218.352Y-119.61
X220.734Y-138.66
X223.115Y-81.51
X224.702Y-117.07
X227.084Y-136.12
X227.877Y-100.56
X229.465Y-78.97
X232.64Y-57.697
X234.227Y-98.02
X237.403Y-119.61
X238.99Y-55.157
X242.165Y-81.51
X243.752Y-117.07
X244.546Y-138.66
X246.927Y-100.56
X248.515Y-78.97
X250.896Y-136.12
X251.69Y-57.697
X251.69Y-138.66
X253.277Y-98.02
X256.452Y-119.61
X256.452Y-138.66
X258.04Y-55.157
X258.04Y-136.12
X261.215Y-81.51
X262.803Y-117.07
X262.803Y-136.12
X265.977Y-100.56
X265.977Y-138.66
X267.565Y-78.97
X270.74Y-57.697
X270.74Y-138.66
X272.327Y-98.02
X272.327Y-136.12
X273.121Y-119.61
X277.09Y-55.157
X277.09Y-136.12
X277.884Y-100.56
X279.471Y-117.07
X282.646Y-119.61
X284.234Y-98.02
X285.027Y-81.51
X285.027Y-138.66
X286.139Y-91.035
X287.409Y-100.56
X287.409Y-138.66
X288.679Y-97.385
X288.996Y-117.07
X289.79Y-57.697
X289.79Y-138.66
X291.377Y-78.97
X291.377Y-136.12
X293.759Y-98.02
X293.759Y-136.12
X296.14Y-55.157
X296.14Y-136.12
X313.602Y-57.697
X313.602Y-76.748
X313.602Y-138.66
X319.952Y-55.157
X319.952Y-74.207
X319.952Y-136.12
X332.652Y-57.697
X332.652Y-76.748
X332.652Y-119.61
X332.652Y-138.66
X339.002Y-55.157
X339.002Y-74.207
X339.002Y-117.07
X339.002Y-136.12
X351.702Y-57.697
X351.702Y-76.748
X351.702Y-138.66
X358.053Y-55.157
X358.053Y-74.207
X358.053Y-136.12
T3
G00X205.929Y-45.663
M15
G01X205.929Y-46.262
M16
G05
G00X205.929Y-49.593
M15
G01X205.929Y-50.692
M16
G05
G00X214.569Y-45.663
M15
G01X214.569Y-46.262
M16
G05
G00X214.569Y-49.593
M15
G01X214.569Y-50.692
M16
G05
T0
M30
