M48
; DRILL file {KiCad (6.0.6)} date Mon Aug 29 19:49:00 2022
; FORMAT={-:-/ absolute / metric / decimal}
; #@! TF.CreationDate,2022-08-29T19:49:00-07:00
; #@! TF.GenerationSoftware,Kicad,Pcbnew,(6.0.6)
; #@! TF.FileFunction,NonPlated,1,2,NPTH
FMAT,2
METRIC
; #@! TA.AperFunction,NonPlated,NPTH,ComponentDrill
T1C0.650
; #@! TA.AperFunction,NonPlated,NPTH,ComponentDrill
T2C1.750
; #@! TA.AperFunction,NonPlated,NPTH,ComponentDrill
T3C3.048
; #@! TA.AperFunction,NonPlated,NPTH,ComponentDrill
T4C3.988
%
G90
G05
T1
X207.359Y-49.612
X213.139Y-49.612
T2
X59.92Y-65.0
X59.92Y-141.2
X62.301Y-103.1
X62.301Y-122.15
X62.301Y-141.2
X64.682Y-84.05
X64.682Y-141.2
X67.064Y-103.1
X70.08Y-65.0
X70.08Y-141.2
X71.826Y-122.15
X72.461Y-103.1
X72.461Y-122.15
X72.461Y-141.2
X74.843Y-84.05
X74.843Y-141.2
X77.224Y-103.1
X78.97Y-65.0
X78.97Y-141.2
X81.986Y-122.15
X83.733Y-122.15
X83.733Y-141.2
X88.495Y-84.05
X89.13Y-65.0
X89.13Y-141.2
X93.257Y-103.1
X93.892Y-122.15
X93.892Y-141.2
X98.02Y-65.0
X98.02Y-141.2
X98.655Y-84.05
X102.782Y-122.15
X103.417Y-103.1
X105.164Y-141.2
X107.545Y-84.05
X108.18Y-65.0
X108.18Y-141.2
X112.307Y-103.1
X112.942Y-122.15
X115.324Y-141.2
X117.07Y-65.0
X117.705Y-84.05
X121.832Y-122.15
X122.468Y-103.1
X126.595Y-84.05
X127.23Y-65.0
X128.976Y-141.2
X131.357Y-103.1
X131.993Y-122.15
X136.12Y-65.0
X136.755Y-84.05
X139.136Y-141.2
X140.882Y-122.15
X141.517Y-103.1
X145.645Y-84.05
X145.645Y-141.2
X146.28Y-65.0
X150.407Y-103.1
X151.042Y-122.15
X155.17Y-65.0
X155.805Y-84.05
X155.805Y-141.2
X157.551Y-141.2
X159.933Y-122.15
X160.567Y-103.1
X164.695Y-84.05
X165.33Y-65.0
X167.711Y-141.2
X169.457Y-103.1
X170.093Y-122.15
X174.22Y-65.0
X174.22Y-141.2
X174.855Y-84.05
X178.982Y-122.15
X179.617Y-103.1
X183.745Y-84.05
X183.745Y-141.2
X184.38Y-65.0
X184.38Y-141.2
X188.507Y-103.1
X189.142Y-122.15
X190.889Y-141.2
X193.905Y-84.05
X193.905Y-141.2
X198.032Y-122.15
X198.667Y-103.1
X201.049Y-141.2
X202.795Y-84.05
X202.795Y-141.2
X207.558Y-103.1
X208.192Y-122.15
X212.955Y-84.05
X212.955Y-141.2
X217.082Y-122.15
X217.718Y-103.1
X219.464Y-141.2
X221.845Y-84.05
X226.607Y-103.1
X227.242Y-122.15
X229.624Y-141.2
X231.37Y-60.237
X232.005Y-84.05
X236.132Y-122.15
X236.767Y-103.1
X240.895Y-84.05
X241.53Y-60.237
X243.276Y-141.2
X245.657Y-103.1
X246.292Y-122.15
X250.42Y-60.237
X250.42Y-141.2
X251.055Y-84.05
X253.436Y-141.2
X255.182Y-122.15
X255.817Y-103.1
X259.945Y-84.05
X260.58Y-60.237
X260.58Y-141.2
X264.707Y-103.1
X264.707Y-141.2
X265.342Y-122.15
X269.47Y-60.237
X269.47Y-141.2
X270.105Y-84.05
X271.851Y-122.15
X274.868Y-103.1
X274.868Y-141.2
X276.614Y-103.1
X279.63Y-60.237
X279.63Y-141.2
X281.376Y-122.15
X282.011Y-122.15
X283.757Y-84.05
X283.757Y-141.2
X286.139Y-103.1
X286.139Y-141.2
X286.774Y-103.1
X288.52Y-60.237
X288.52Y-141.2
X291.219Y-88.495
X291.219Y-98.655
X291.536Y-122.15
X293.917Y-84.05
X293.917Y-141.2
X296.299Y-103.1
X296.299Y-141.2
X298.68Y-60.237
X298.68Y-141.2
X312.332Y-60.237
X312.332Y-79.287
X312.332Y-141.2
X322.493Y-60.237
X322.493Y-79.287
X322.493Y-141.2
X331.382Y-60.237
X331.382Y-79.287
X331.382Y-122.15
X331.382Y-141.2
X341.542Y-60.237
X341.542Y-79.287
X341.542Y-122.15
X341.542Y-141.2
X350.433Y-60.237
X350.433Y-79.287
X350.433Y-141.2
X360.592Y-60.237
X360.592Y-79.287
X360.592Y-141.2
T3
X65.0Y-115.165
X88.812Y-115.165
X112.625Y-148.185
X122.15Y-148.185
X131.675Y-148.185
X131.675Y-148.185
X169.775Y-148.185
X188.825Y-148.185
X226.925Y-148.185
X226.925Y-148.185
X236.45Y-148.185
X245.975Y-148.185
X265.025Y-115.165
X269.787Y-96.115
X288.837Y-115.165
X293.6Y-96.115
X298.204Y-81.669
X298.204Y-105.481
T4
X65.0Y-65.0
X65.0Y-130.405
X65.0Y-141.2
X67.381Y-103.1
X67.381Y-122.15
X67.381Y-141.2
X69.763Y-84.05
X69.763Y-141.2
X72.144Y-103.1
X76.906Y-122.15
X84.05Y-65.0
X84.05Y-141.2
X88.812Y-122.15
X88.812Y-130.405
X88.812Y-141.2
X93.575Y-84.05
X98.337Y-103.1
X103.1Y-65.0
X103.1Y-141.2
X107.862Y-122.15
X110.244Y-141.2
X112.625Y-84.05
X112.625Y-132.945
X117.387Y-103.1
X122.15Y-65.0
X122.15Y-132.945
X126.912Y-122.15
X131.675Y-84.05
X131.675Y-132.945
X131.675Y-132.945
X134.056Y-141.2
X136.438Y-103.1
X141.2Y-65.0
X145.963Y-122.15
X150.725Y-84.05
X150.725Y-141.2
X155.487Y-103.1
X160.25Y-65.0
X162.631Y-141.2
X165.012Y-122.15
X169.775Y-84.05
X169.775Y-132.945
X174.537Y-103.1
X179.3Y-65.0
X179.3Y-141.2
X184.062Y-122.15
X188.825Y-84.05
X188.825Y-132.945
X188.825Y-141.2
X193.587Y-103.1
X195.969Y-141.2
X203.112Y-122.15
X207.875Y-84.05
X207.875Y-141.2
X212.637Y-103.1
X222.162Y-122.15
X224.544Y-141.2
X226.925Y-84.05
X226.925Y-132.945
X226.925Y-132.945
X231.688Y-103.1
X236.45Y-60.237
X236.45Y-132.945
X241.212Y-122.15
X245.975Y-84.05
X245.975Y-132.945
X248.356Y-141.2
X250.737Y-103.1
X255.5Y-60.237
X255.5Y-141.2
X260.262Y-122.15
X265.025Y-84.05
X265.025Y-130.405
X269.787Y-103.1
X269.787Y-111.355
X269.787Y-141.2
X274.55Y-60.237
X274.55Y-141.2
X276.931Y-122.15
X281.694Y-103.1
X282.964Y-81.669
X282.964Y-105.481
X286.456Y-122.15
X288.837Y-84.05
X288.837Y-130.405
X288.837Y-141.2
X291.219Y-93.575
X291.219Y-103.1
X291.219Y-141.2
X293.6Y-60.237
X293.6Y-111.355
X293.6Y-141.2
X317.412Y-60.237
X317.412Y-79.287
X317.412Y-141.2
X336.462Y-60.237
X336.462Y-79.287
X336.462Y-122.15
X336.462Y-141.2
X355.512Y-60.237
X355.512Y-79.287
X355.512Y-141.2
T0
M30
