%TF.GenerationSoftware,KiCad,Pcbnew,(6.0.6)*%
%TF.CreationDate,2022-08-29T19:48:57-07:00*%
%TF.ProjectId,2040rmie,32303430-726d-4696-952e-6b696361645f,rev?*%
%TF.SameCoordinates,Original*%
%TF.FileFunction,Soldermask,Top*%
%TF.FilePolarity,Negative*%
%FSLAX46Y46*%
G04 Gerber Fmt 4.6, Leading zero omitted, Abs format (unit mm)*
G04 Created by KiCad (PCBNEW (6.0.6)) date 2022-08-29 19:48:57*
%MOMM*%
%LPD*%
G01*
G04 APERTURE LIST*
%ADD10C,1.750000*%
%ADD11C,3.987800*%
%ADD12C,3.048000*%
%ADD13C,0.650000*%
%ADD14O,1.000000X1.600000*%
%ADD15O,1.000000X2.100000*%
G04 APERTURE END LIST*
D10*
%TO.C,MX3-B0*%
X62301250Y-122150000D03*
D11*
X67381250Y-122150000D03*
D10*
X72461250Y-122150000D03*
%TD*%
D11*
%TO.C,MX4-7_2*%
X188825000Y-141200000D03*
D10*
X183745000Y-141200000D03*
X193905000Y-141200000D03*
%TD*%
%TO.C,MX3-2*%
X102782500Y-122150000D03*
D11*
X107862500Y-122150000D03*
D10*
X112942500Y-122150000D03*
%TD*%
%TO.C,MX3-13*%
X341542500Y-122150000D03*
X331382500Y-122150000D03*
D11*
X336462500Y-122150000D03*
%TD*%
%TO.C,ST-2_0*%
X226925000Y-132945000D03*
D12*
X226925000Y-148185000D03*
X131675000Y-148185000D03*
D11*
X131675000Y-132945000D03*
%TD*%
D10*
%TO.C,MX0-8*%
X241530000Y-60237500D03*
D11*
X236450000Y-60237500D03*
D10*
X231370000Y-60237500D03*
%TD*%
D11*
%TO.C,MX4-0_1*%
X69762500Y-141200000D03*
D10*
X74842500Y-141200000D03*
X64682500Y-141200000D03*
%TD*%
D11*
%TO.C,MX4-0_2*%
X67381250Y-141200000D03*
D10*
X72461250Y-141200000D03*
X62301250Y-141200000D03*
%TD*%
%TO.C,MX2-10*%
X274867500Y-103100000D03*
D11*
X269787500Y-103100000D03*
D10*
X264707500Y-103100000D03*
%TD*%
%TO.C,MX4-7_4*%
X201048750Y-141200000D03*
D11*
X195968750Y-141200000D03*
D10*
X190888750Y-141200000D03*
%TD*%
%TO.C,MX1-7*%
X212955000Y-84050000D03*
X202795000Y-84050000D03*
D11*
X207875000Y-84050000D03*
%TD*%
D10*
%TO.C,MX0-14*%
X360592500Y-60237500D03*
D11*
X355512500Y-60237500D03*
D10*
X350432500Y-60237500D03*
%TD*%
%TO.C,MX4-4_4*%
X167711250Y-141200000D03*
D11*
X162631250Y-141200000D03*
D10*
X157551250Y-141200000D03*
%TD*%
D11*
%TO.C,MX0-2*%
X103100000Y-65000000D03*
D10*
X98020000Y-65000000D03*
X108180000Y-65000000D03*
%TD*%
D12*
%TO.C,ST-B1*%
X65000000Y-115165000D03*
X88812500Y-115165000D03*
D11*
X88812500Y-130405000D03*
X65000000Y-130405000D03*
%TD*%
D10*
%TO.C,MX0-13*%
X331382500Y-60237500D03*
D11*
X336462500Y-60237500D03*
D10*
X341542500Y-60237500D03*
%TD*%
D11*
%TO.C,MX0-3*%
X122150000Y-65000000D03*
D10*
X127230000Y-65000000D03*
X117070000Y-65000000D03*
%TD*%
D11*
%TO.C,MX0-9*%
X255500000Y-60237500D03*
D10*
X260580000Y-60237500D03*
X250420000Y-60237500D03*
%TD*%
%TO.C,MX4-10_0*%
X269470000Y-141200000D03*
X279630000Y-141200000D03*
D11*
X274550000Y-141200000D03*
%TD*%
D10*
%TO.C,MX1-14*%
X350432500Y-79287500D03*
D11*
X355512500Y-79287500D03*
D10*
X360592500Y-79287500D03*
%TD*%
%TO.C,MX3-3*%
X121832500Y-122150000D03*
X131992500Y-122150000D03*
D11*
X126912500Y-122150000D03*
%TD*%
%TO.C,ST-A2*%
X282963750Y-81668750D03*
D12*
X298203750Y-105481250D03*
X298203750Y-81668750D03*
D11*
X282963750Y-105481250D03*
%TD*%
D12*
%TO.C,ST-3_0*%
X169775000Y-148185000D03*
D11*
X131675000Y-132945000D03*
X169775000Y-132945000D03*
D12*
X131675000Y-148185000D03*
%TD*%
D11*
%TO.C,MX1-8*%
X226925000Y-84050000D03*
D10*
X232005000Y-84050000D03*
X221845000Y-84050000D03*
%TD*%
%TO.C,MX1-13*%
X331382500Y-79287500D03*
X341542500Y-79287500D03*
D11*
X336462500Y-79287500D03*
%TD*%
D10*
%TO.C,MX1-6*%
X183745000Y-84050000D03*
D11*
X188825000Y-84050000D03*
D10*
X193905000Y-84050000D03*
%TD*%
D11*
%TO.C,MX4-1_2*%
X88812500Y-141200000D03*
D10*
X83732500Y-141200000D03*
X93892500Y-141200000D03*
%TD*%
D11*
%TO.C,ST-3_1*%
X226925000Y-132945000D03*
X188825000Y-132945000D03*
D12*
X188825000Y-148185000D03*
X226925000Y-148185000D03*
%TD*%
D10*
%TO.C,MX4-4_0*%
X184380000Y-141200000D03*
D11*
X179300000Y-141200000D03*
D10*
X174220000Y-141200000D03*
%TD*%
D12*
%TO.C,ST-C1*%
X265025000Y-115165000D03*
D11*
X288837500Y-130405000D03*
X265025000Y-130405000D03*
D12*
X288837500Y-115165000D03*
%TD*%
D10*
%TO.C,MX2-A11*%
X276613750Y-103100000D03*
D11*
X281693750Y-103100000D03*
D10*
X286773750Y-103100000D03*
%TD*%
%TO.C,MX3-10*%
X255182500Y-122150000D03*
D11*
X260262500Y-122150000D03*
D10*
X265342500Y-122150000D03*
%TD*%
D11*
%TO.C,MX2-1*%
X98337500Y-103100000D03*
D10*
X103417500Y-103100000D03*
X93257500Y-103100000D03*
%TD*%
D11*
%TO.C,MX1-4*%
X150725000Y-84050000D03*
D10*
X155805000Y-84050000D03*
X145645000Y-84050000D03*
%TD*%
D12*
%TO.C,ST-0_0*%
X236450000Y-148185000D03*
X122150000Y-148185000D03*
D11*
X236450000Y-132945000D03*
X122150000Y-132945000D03*
%TD*%
D10*
%TO.C,MX4-3_4*%
X128976250Y-141200000D03*
D11*
X134056250Y-141200000D03*
D10*
X139136250Y-141200000D03*
%TD*%
%TO.C,MX3-9*%
X246292500Y-122150000D03*
X236132500Y-122150000D03*
D11*
X241212500Y-122150000D03*
%TD*%
%TO.C,MX4-2_2*%
X110243750Y-141200000D03*
D10*
X115323750Y-141200000D03*
X105163750Y-141200000D03*
%TD*%
%TO.C,MX1-12*%
X322492500Y-79287500D03*
D11*
X317412500Y-79287500D03*
D10*
X312332500Y-79287500D03*
%TD*%
D11*
%TO.C,MX3-A11*%
X276931250Y-122150000D03*
D10*
X282011250Y-122150000D03*
X271851250Y-122150000D03*
%TD*%
D11*
%TO.C,MX2-8*%
X231687500Y-103100000D03*
D10*
X226607500Y-103100000D03*
X236767500Y-103100000D03*
%TD*%
%TO.C,MX2-5*%
X169457500Y-103100000D03*
X179617500Y-103100000D03*
D11*
X174537500Y-103100000D03*
%TD*%
D10*
%TO.C,MX2-3*%
X131357500Y-103100000D03*
X141517500Y-103100000D03*
D11*
X136437500Y-103100000D03*
%TD*%
D10*
%TO.C,MX3-8*%
X227242500Y-122150000D03*
D11*
X222162500Y-122150000D03*
D10*
X217082500Y-122150000D03*
%TD*%
D11*
%TO.C,MX1-11*%
X288837500Y-84050000D03*
D10*
X293917500Y-84050000D03*
X283757500Y-84050000D03*
%TD*%
%TO.C,MX4-13*%
X341542500Y-141200000D03*
D11*
X336462500Y-141200000D03*
D10*
X331382500Y-141200000D03*
%TD*%
%TO.C,MX1-1*%
X88495000Y-84050000D03*
D11*
X93575000Y-84050000D03*
D10*
X98655000Y-84050000D03*
%TD*%
%TO.C,MX3-4*%
X151042500Y-122150000D03*
D11*
X145962500Y-122150000D03*
D10*
X140882500Y-122150000D03*
%TD*%
%TO.C,MX3-5*%
X170092500Y-122150000D03*
D11*
X165012500Y-122150000D03*
D10*
X159932500Y-122150000D03*
%TD*%
D11*
%TO.C,MX0-12*%
X317412500Y-60237500D03*
D10*
X322492500Y-60237500D03*
X312332500Y-60237500D03*
%TD*%
%TO.C,MX2-C11*%
X291218750Y-88495000D03*
D11*
X291218750Y-93575000D03*
D10*
X291218750Y-98655000D03*
%TD*%
D11*
%TO.C,MX4-9_2*%
X248356250Y-141200000D03*
D10*
X243276250Y-141200000D03*
X253436250Y-141200000D03*
%TD*%
%TO.C,MX4-4_3*%
X145645000Y-141200000D03*
D11*
X150725000Y-141200000D03*
D10*
X155805000Y-141200000D03*
%TD*%
D11*
%TO.C,ST-1_0*%
X112625000Y-132945000D03*
D12*
X245975000Y-148185000D03*
X112625000Y-148185000D03*
D11*
X245975000Y-132945000D03*
%TD*%
D10*
%TO.C,MX1-2*%
X107545000Y-84050000D03*
D11*
X112625000Y-84050000D03*
D10*
X117705000Y-84050000D03*
%TD*%
D11*
%TO.C,MX1-10*%
X265025000Y-84050000D03*
D10*
X259945000Y-84050000D03*
X270105000Y-84050000D03*
%TD*%
D11*
%TO.C,MX4-2_0*%
X103100000Y-141200000D03*
D10*
X98020000Y-141200000D03*
X108180000Y-141200000D03*
%TD*%
%TO.C,MX1-3*%
X126595000Y-84050000D03*
D11*
X131675000Y-84050000D03*
D10*
X136755000Y-84050000D03*
%TD*%
%TO.C,MX4-12*%
X312332500Y-141200000D03*
D11*
X317412500Y-141200000D03*
D10*
X322492500Y-141200000D03*
%TD*%
%TO.C,MX1-5*%
X164695000Y-84050000D03*
D11*
X169775000Y-84050000D03*
D10*
X174855000Y-84050000D03*
%TD*%
%TO.C,MX2-6*%
X188507500Y-103100000D03*
D11*
X193587500Y-103100000D03*
D10*
X198667500Y-103100000D03*
%TD*%
%TO.C,MX4-11_2*%
X286138750Y-141200000D03*
X296298750Y-141200000D03*
D11*
X291218750Y-141200000D03*
%TD*%
D10*
%TO.C,MX4-8_4*%
X229623750Y-141200000D03*
D11*
X224543750Y-141200000D03*
D10*
X219463750Y-141200000D03*
%TD*%
%TO.C,MX2-7*%
X217717500Y-103100000D03*
D11*
X212637500Y-103100000D03*
D10*
X207557500Y-103100000D03*
%TD*%
%TO.C,MX2-9*%
X255817500Y-103100000D03*
D11*
X250737500Y-103100000D03*
D10*
X245657500Y-103100000D03*
%TD*%
%TO.C,MX3-B11*%
X281376250Y-122150000D03*
X291536250Y-122150000D03*
D11*
X286456250Y-122150000D03*
%TD*%
%TO.C,MX4-11_0*%
X293600000Y-141200000D03*
D10*
X298680000Y-141200000D03*
X288520000Y-141200000D03*
%TD*%
%TO.C,MX4-1_0*%
X78970000Y-141200000D03*
X89130000Y-141200000D03*
D11*
X84050000Y-141200000D03*
%TD*%
D10*
%TO.C,MX4-10_2*%
X264707500Y-141200000D03*
D11*
X269787500Y-141200000D03*
D10*
X274867500Y-141200000D03*
%TD*%
D11*
%TO.C,ST-A1*%
X269787500Y-111355000D03*
X293600000Y-111355000D03*
D12*
X293600000Y-96115000D03*
X269787500Y-96115000D03*
%TD*%
D11*
%TO.C,MX0-5*%
X160250000Y-65000000D03*
D10*
X165330000Y-65000000D03*
X155170000Y-65000000D03*
%TD*%
%TO.C,MX4-11_1*%
X283757500Y-141200000D03*
D11*
X288837500Y-141200000D03*
D10*
X293917500Y-141200000D03*
%TD*%
%TO.C,MX0-1*%
X89130000Y-65000000D03*
D11*
X84050000Y-65000000D03*
D10*
X78970000Y-65000000D03*
%TD*%
%TO.C,MX3-1*%
X93892500Y-122150000D03*
X83732500Y-122150000D03*
D11*
X88812500Y-122150000D03*
%TD*%
D10*
%TO.C,MX3-7*%
X208192500Y-122150000D03*
D11*
X203112500Y-122150000D03*
D10*
X198032500Y-122150000D03*
%TD*%
%TO.C,MX0-6*%
X174220000Y-65000000D03*
X184380000Y-65000000D03*
D11*
X179300000Y-65000000D03*
%TD*%
D10*
%TO.C,MX2-B0*%
X62301250Y-103100000D03*
D11*
X67381250Y-103100000D03*
D10*
X72461250Y-103100000D03*
%TD*%
D11*
%TO.C,MX4-9_0*%
X255500000Y-141200000D03*
D10*
X260580000Y-141200000D03*
X250420000Y-141200000D03*
%TD*%
D11*
%TO.C,MX4-0_0*%
X65000000Y-141200000D03*
D10*
X59920000Y-141200000D03*
X70080000Y-141200000D03*
%TD*%
%TO.C,MX2-2*%
X112307500Y-103100000D03*
D11*
X117387500Y-103100000D03*
D10*
X122467500Y-103100000D03*
%TD*%
D11*
%TO.C,MX0-11*%
X293600000Y-60237500D03*
D10*
X288520000Y-60237500D03*
X298680000Y-60237500D03*
%TD*%
%TO.C,MX1-9*%
X251055000Y-84050000D03*
D11*
X245975000Y-84050000D03*
D10*
X240895000Y-84050000D03*
%TD*%
%TO.C,MX2-4*%
X160567500Y-103100000D03*
X150407500Y-103100000D03*
D11*
X155487500Y-103100000D03*
%TD*%
D10*
%TO.C,MX4-14*%
X360592500Y-141200000D03*
D11*
X355512500Y-141200000D03*
D10*
X350432500Y-141200000D03*
%TD*%
D11*
%TO.C,MX1-0*%
X69762500Y-84050000D03*
D10*
X74842500Y-84050000D03*
X64682500Y-84050000D03*
%TD*%
%TO.C,MX2-A0*%
X77223750Y-103100000D03*
D11*
X72143750Y-103100000D03*
D10*
X67063750Y-103100000D03*
%TD*%
%TO.C,MX3-A0*%
X81986250Y-122150000D03*
X71826250Y-122150000D03*
D11*
X76906250Y-122150000D03*
%TD*%
D10*
%TO.C,MX3-6*%
X178982500Y-122150000D03*
X189142500Y-122150000D03*
D11*
X184062500Y-122150000D03*
%TD*%
D10*
%TO.C,MX4-7_3*%
X212955000Y-141200000D03*
X202795000Y-141200000D03*
D11*
X207875000Y-141200000D03*
%TD*%
%TO.C,MX2-B11*%
X291218750Y-103100000D03*
D10*
X286138750Y-103100000D03*
X296298750Y-103100000D03*
%TD*%
D11*
%TO.C,MX0-0*%
X65000000Y-65000000D03*
D10*
X70080000Y-65000000D03*
X59920000Y-65000000D03*
%TD*%
%TO.C,MX0-10*%
X279630000Y-60237500D03*
X269470000Y-60237500D03*
D11*
X274550000Y-60237500D03*
%TD*%
%TO.C,MX0-4*%
X141200000Y-65000000D03*
D10*
X136120000Y-65000000D03*
X146280000Y-65000000D03*
%TD*%
D13*
%TO.C,USB1*%
X213138750Y-49612500D03*
X207358750Y-49612500D03*
D14*
X214568750Y-45962500D03*
D15*
X214568750Y-50142500D03*
X205928750Y-50142500D03*
D14*
X205928750Y-45962500D03*
%TD*%
M02*
