%TF.GenerationSoftware,KiCad,Pcbnew,(6.0.6)*%
%TF.CreationDate,2022-08-29T19:48:57-07:00*%
%TF.ProjectId,2040rmie,32303430-726d-4696-952e-6b696361645f,rev?*%
%TF.SameCoordinates,Original*%
%TF.FileFunction,Legend,Top*%
%TF.FilePolarity,Positive*%
%FSLAX46Y46*%
G04 Gerber Fmt 4.6, Leading zero omitted, Abs format (unit mm)*
G04 Created by KiCad (PCBNEW (6.0.6)) date 2022-08-29 19:48:57*
%MOMM*%
%LPD*%
G01*
G04 APERTURE LIST*
%ADD10C,0.200000*%
%ADD11C,1.750000*%
%ADD12C,3.987800*%
%ADD13C,3.048000*%
%ADD14C,0.650000*%
%ADD15O,1.000000X1.600000*%
%ADD16O,1.000000X2.100000*%
G04 APERTURE END LIST*
D10*
X279837500Y-130405000D02*
X285837500Y-130405000D01*
X284600000Y-111355000D02*
X290600000Y-111355000D01*
X79812500Y-130405000D02*
X85812500Y-130405000D01*
X272787500Y-111355000D02*
X278787500Y-111355000D01*
X298250000Y-84590750D02*
X298250000Y-90590750D01*
X68000000Y-130405000D02*
X74000000Y-130405000D01*
X298250000Y-96466750D02*
X298250000Y-102466750D01*
X268025000Y-130405000D02*
X274025000Y-130405000D01*
X188039285Y-129397380D02*
X188658333Y-129397380D01*
X188325000Y-129778333D01*
X188467857Y-129778333D01*
X188563095Y-129825952D01*
X188610714Y-129873571D01*
X188658333Y-129968809D01*
X188658333Y-130206904D01*
X188610714Y-130302142D01*
X188563095Y-130349761D01*
X188467857Y-130397380D01*
X188182142Y-130397380D01*
X188086904Y-130349761D01*
X188039285Y-130302142D01*
X189515476Y-129730714D02*
X189515476Y-130397380D01*
X189086904Y-129730714D02*
X189086904Y-130254523D01*
X189134523Y-130349761D01*
X189229761Y-130397380D01*
X189372619Y-130397380D01*
X189467857Y-130349761D01*
X189515476Y-130302142D01*
X353846398Y-64131830D02*
X353572589Y-63655640D01*
X353274970Y-64131830D02*
X353399970Y-63131830D01*
X353780922Y-63131830D01*
X353870208Y-63179450D01*
X353911875Y-63227069D01*
X353947589Y-63322307D01*
X353929732Y-63465164D01*
X353870208Y-63560402D01*
X353816636Y-63608021D01*
X353715446Y-63655640D01*
X353334494Y-63655640D01*
X354417827Y-64131830D02*
X354328541Y-64084211D01*
X354286875Y-64036592D01*
X354251160Y-63941354D01*
X354286875Y-63655640D01*
X354346398Y-63560402D01*
X354399970Y-63512783D01*
X354501160Y-63465164D01*
X354644017Y-63465164D01*
X354733303Y-63512783D01*
X354774970Y-63560402D01*
X354810684Y-63655640D01*
X354774970Y-63941354D01*
X354715446Y-64036592D01*
X354661875Y-64084211D01*
X354560684Y-64131830D01*
X354417827Y-64131830D01*
X355120208Y-63465164D02*
X355501160Y-63465164D01*
X355304732Y-63131830D02*
X355197589Y-63988973D01*
X355233303Y-64084211D01*
X355322589Y-64131830D01*
X355417827Y-64131830D01*
X356179732Y-64131830D02*
X356245208Y-63608021D01*
X356209494Y-63512783D01*
X356120208Y-63465164D01*
X355929732Y-63465164D01*
X355828541Y-63512783D01*
X356185684Y-64084211D02*
X356084494Y-64131830D01*
X355846398Y-64131830D01*
X355757113Y-64084211D01*
X355721398Y-63988973D01*
X355733303Y-63893735D01*
X355792827Y-63798497D01*
X355894017Y-63750878D01*
X356132113Y-63750878D01*
X356233303Y-63703259D01*
X356655922Y-64131830D02*
X356739255Y-63465164D01*
X356715446Y-63655640D02*
X356774970Y-63560402D01*
X356828541Y-63512783D01*
X356929732Y-63465164D01*
X357024970Y-63465164D01*
X357263065Y-63465164D02*
X357417827Y-64131830D01*
X357739255Y-63465164D02*
X357417827Y-64131830D01*
X357292827Y-64369926D01*
X357239255Y-64417545D01*
X357138065Y-64465164D01*
X352745208Y-65218021D02*
X353078541Y-65218021D01*
X353155922Y-65741830D02*
X352679732Y-65741830D01*
X352804732Y-64741830D01*
X353280922Y-64741830D01*
X353667827Y-65075164D02*
X353584494Y-65741830D01*
X353655922Y-65170402D02*
X353709494Y-65122783D01*
X353810684Y-65075164D01*
X353953541Y-65075164D01*
X354042827Y-65122783D01*
X354078541Y-65218021D01*
X354013065Y-65741830D01*
X354923779Y-65694211D02*
X354822589Y-65741830D01*
X354632113Y-65741830D01*
X354542827Y-65694211D01*
X354501160Y-65646592D01*
X354465446Y-65551354D01*
X354501160Y-65265640D01*
X354560684Y-65170402D01*
X354614255Y-65122783D01*
X354715446Y-65075164D01*
X354905922Y-65075164D01*
X354995208Y-65122783D01*
X355489255Y-65741830D02*
X355399970Y-65694211D01*
X355358303Y-65646592D01*
X355322589Y-65551354D01*
X355358303Y-65265640D01*
X355417827Y-65170402D01*
X355471398Y-65122783D01*
X355572589Y-65075164D01*
X355715446Y-65075164D01*
X355804732Y-65122783D01*
X355846398Y-65170402D01*
X355882113Y-65265640D01*
X355846398Y-65551354D01*
X355786875Y-65646592D01*
X355733303Y-65694211D01*
X355632113Y-65741830D01*
X355489255Y-65741830D01*
X356679732Y-65741830D02*
X356804732Y-64741830D01*
X356685684Y-65694211D02*
X356584494Y-65741830D01*
X356394017Y-65741830D01*
X356304732Y-65694211D01*
X356263065Y-65646592D01*
X356227351Y-65551354D01*
X356263065Y-65265640D01*
X356322589Y-65170402D01*
X356376160Y-65122783D01*
X356477351Y-65075164D01*
X356667827Y-65075164D01*
X356757113Y-65122783D01*
X357542827Y-65694211D02*
X357441636Y-65741830D01*
X357251160Y-65741830D01*
X357161875Y-65694211D01*
X357126160Y-65598973D01*
X357173779Y-65218021D01*
X357233303Y-65122783D01*
X357334494Y-65075164D01*
X357524970Y-65075164D01*
X357614255Y-65122783D01*
X357649970Y-65218021D01*
X357638065Y-65313259D01*
X357149970Y-65408497D01*
X358013065Y-65741830D02*
X358096398Y-65075164D01*
X358072589Y-65265640D02*
X358132113Y-65170402D01*
X358185684Y-65122783D01*
X358286875Y-65075164D01*
X358382113Y-65075164D01*
X162821726Y-143985714D02*
X162821726Y-144652380D01*
X162583630Y-143604761D02*
X162345535Y-144319047D01*
X162964583Y-144319047D01*
X109958035Y-143747619D02*
X110005654Y-143700000D01*
X110100892Y-143652380D01*
X110338988Y-143652380D01*
X110434226Y-143700000D01*
X110481845Y-143747619D01*
X110529464Y-143842857D01*
X110529464Y-143938095D01*
X110481845Y-144080952D01*
X109910416Y-144652380D01*
X110529464Y-144652380D01*
X179585714Y-146152380D02*
X179014285Y-146152380D01*
X179300000Y-146152380D02*
X179300000Y-145152380D01*
X179204761Y-145295238D01*
X179109523Y-145390476D01*
X179014285Y-145438095D01*
X111982142Y-130397380D02*
X111410714Y-130397380D01*
X111696428Y-130397380D02*
X111696428Y-129397380D01*
X111601190Y-129540238D01*
X111505952Y-129635476D01*
X111410714Y-129683095D01*
X112601190Y-129397380D02*
X112696428Y-129397380D01*
X112791666Y-129445000D01*
X112839285Y-129492619D01*
X112886904Y-129587857D01*
X112934523Y-129778333D01*
X112934523Y-130016428D01*
X112886904Y-130206904D01*
X112839285Y-130302142D01*
X112791666Y-130349761D01*
X112696428Y-130397380D01*
X112601190Y-130397380D01*
X112505952Y-130349761D01*
X112458333Y-130302142D01*
X112410714Y-130206904D01*
X112363095Y-130016428D01*
X112363095Y-129778333D01*
X112410714Y-129587857D01*
X112458333Y-129492619D01*
X112505952Y-129445000D01*
X112601190Y-129397380D01*
X113791666Y-129730714D02*
X113791666Y-130397380D01*
X113363095Y-129730714D02*
X113363095Y-130254523D01*
X113410714Y-130349761D01*
X113505952Y-130397380D01*
X113648809Y-130397380D01*
X113744047Y-130349761D01*
X113791666Y-130302142D01*
X245332142Y-130397380D02*
X244760714Y-130397380D01*
X245046428Y-130397380D02*
X245046428Y-129397380D01*
X244951190Y-129540238D01*
X244855952Y-129635476D01*
X244760714Y-129683095D01*
X245951190Y-129397380D02*
X246046428Y-129397380D01*
X246141666Y-129445000D01*
X246189285Y-129492619D01*
X246236904Y-129587857D01*
X246284523Y-129778333D01*
X246284523Y-130016428D01*
X246236904Y-130206904D01*
X246189285Y-130302142D01*
X246141666Y-130349761D01*
X246046428Y-130397380D01*
X245951190Y-130397380D01*
X245855952Y-130349761D01*
X245808333Y-130302142D01*
X245760714Y-130206904D01*
X245713095Y-130016428D01*
X245713095Y-129778333D01*
X245760714Y-129587857D01*
X245808333Y-129492619D01*
X245855952Y-129445000D01*
X245951190Y-129397380D01*
X247141666Y-129730714D02*
X247141666Y-130397380D01*
X246713095Y-129730714D02*
X246713095Y-130254523D01*
X246760714Y-130349761D01*
X246855952Y-130397380D01*
X246998809Y-130397380D01*
X247094047Y-130349761D01*
X247141666Y-130302142D01*
X68881547Y-87502380D02*
X68310119Y-87502380D01*
X68595833Y-87502380D02*
X68595833Y-86502380D01*
X68500595Y-86645238D01*
X68405357Y-86740476D01*
X68310119Y-86788095D01*
X69310119Y-87407142D02*
X69357738Y-87454761D01*
X69310119Y-87502380D01*
X69262500Y-87454761D01*
X69310119Y-87407142D01*
X69310119Y-87502380D01*
X70262500Y-86502380D02*
X69786309Y-86502380D01*
X69738690Y-86978571D01*
X69786309Y-86930952D01*
X69881547Y-86883333D01*
X70119642Y-86883333D01*
X70214880Y-86930952D01*
X70262500Y-86978571D01*
X70310119Y-87073809D01*
X70310119Y-87311904D01*
X70262500Y-87407142D01*
X70214880Y-87454761D01*
X70119642Y-87502380D01*
X69881547Y-87502380D01*
X69786309Y-87454761D01*
X69738690Y-87407142D01*
X71167261Y-86835714D02*
X71167261Y-87502380D01*
X70738690Y-86835714D02*
X70738690Y-87359523D01*
X70786309Y-87454761D01*
X70881547Y-87502380D01*
X71024404Y-87502380D01*
X71119642Y-87454761D01*
X71167261Y-87407142D01*
X150391666Y-143652380D02*
X151010714Y-143652380D01*
X150677380Y-144033333D01*
X150820238Y-144033333D01*
X150915476Y-144080952D01*
X150963095Y-144128571D01*
X151010714Y-144223809D01*
X151010714Y-144461904D01*
X150963095Y-144557142D01*
X150915476Y-144604761D01*
X150820238Y-144652380D01*
X150534523Y-144652380D01*
X150439285Y-144604761D01*
X150391666Y-144557142D01*
X275002678Y-129952619D02*
X275050297Y-129905000D01*
X275145535Y-129857380D01*
X275383630Y-129857380D01*
X275478869Y-129905000D01*
X275526488Y-129952619D01*
X275574107Y-130047857D01*
X275574107Y-130143095D01*
X275526488Y-130285952D01*
X274955059Y-130857380D01*
X275574107Y-130857380D01*
X276002678Y-130762142D02*
X276050297Y-130809761D01*
X276002678Y-130857380D01*
X275955059Y-130809761D01*
X276002678Y-130762142D01*
X276002678Y-130857380D01*
X276383630Y-129857380D02*
X277050297Y-129857380D01*
X276621726Y-130857380D01*
X277907440Y-129857380D02*
X277431250Y-129857380D01*
X277383630Y-130333571D01*
X277431250Y-130285952D01*
X277526488Y-130238333D01*
X277764583Y-130238333D01*
X277859821Y-130285952D01*
X277907440Y-130333571D01*
X277955059Y-130428809D01*
X277955059Y-130666904D01*
X277907440Y-130762142D01*
X277859821Y-130809761D01*
X277764583Y-130857380D01*
X277526488Y-130857380D01*
X277431250Y-130809761D01*
X277383630Y-130762142D01*
X278812202Y-130190714D02*
X278812202Y-130857380D01*
X278383630Y-130190714D02*
X278383630Y-130714523D01*
X278431250Y-130809761D01*
X278526488Y-130857380D01*
X278669345Y-130857380D01*
X278764583Y-130809761D01*
X278812202Y-130762142D01*
X285099107Y-125602380D02*
X284527678Y-125602380D01*
X284813392Y-125602380D02*
X284813392Y-124602380D01*
X284718154Y-124745238D01*
X284622916Y-124840476D01*
X284527678Y-124888095D01*
X285527678Y-125507142D02*
X285575297Y-125554761D01*
X285527678Y-125602380D01*
X285480059Y-125554761D01*
X285527678Y-125507142D01*
X285527678Y-125602380D01*
X285908630Y-124602380D02*
X286575297Y-124602380D01*
X286146726Y-125602380D01*
X287432440Y-124602380D02*
X286956250Y-124602380D01*
X286908630Y-125078571D01*
X286956250Y-125030952D01*
X287051488Y-124983333D01*
X287289583Y-124983333D01*
X287384821Y-125030952D01*
X287432440Y-125078571D01*
X287480059Y-125173809D01*
X287480059Y-125411904D01*
X287432440Y-125507142D01*
X287384821Y-125554761D01*
X287289583Y-125602380D01*
X287051488Y-125602380D01*
X286956250Y-125554761D01*
X286908630Y-125507142D01*
X288337202Y-124935714D02*
X288337202Y-125602380D01*
X287908630Y-124935714D02*
X287908630Y-125459523D01*
X287956250Y-125554761D01*
X288051488Y-125602380D01*
X288194345Y-125602380D01*
X288289583Y-125554761D01*
X288337202Y-125507142D01*
X207541666Y-143652380D02*
X208160714Y-143652380D01*
X207827380Y-144033333D01*
X207970238Y-144033333D01*
X208065476Y-144080952D01*
X208113095Y-144128571D01*
X208160714Y-144223809D01*
X208160714Y-144461904D01*
X208113095Y-144557142D01*
X208065476Y-144604761D01*
X207970238Y-144652380D01*
X207684523Y-144652380D01*
X207589285Y-144604761D01*
X207541666Y-144557142D01*
X196159226Y-143985714D02*
X196159226Y-144652380D01*
X195921130Y-143604761D02*
X195683035Y-144319047D01*
X196302083Y-144319047D01*
X103052380Y-143652380D02*
X103147619Y-143652380D01*
X103242857Y-143700000D01*
X103290476Y-143747619D01*
X103338095Y-143842857D01*
X103385714Y-144033333D01*
X103385714Y-144271428D01*
X103338095Y-144461904D01*
X103290476Y-144557142D01*
X103242857Y-144604761D01*
X103147619Y-144652380D01*
X103052380Y-144652380D01*
X102957142Y-144604761D01*
X102909523Y-144557142D01*
X102861904Y-144461904D01*
X102814285Y-144271428D01*
X102814285Y-144033333D01*
X102861904Y-143842857D01*
X102909523Y-143747619D01*
X102957142Y-143700000D01*
X103052380Y-143652380D01*
X235664285Y-129397380D02*
X236330952Y-129397380D01*
X235902380Y-130397380D01*
X237140476Y-129730714D02*
X237140476Y-130397380D01*
X236711904Y-129730714D02*
X236711904Y-130254523D01*
X236759523Y-130349761D01*
X236854761Y-130397380D01*
X236997619Y-130397380D01*
X237092857Y-130349761D01*
X237140476Y-130302142D01*
X64858303Y-110712380D02*
X64983303Y-109712380D01*
X65417827Y-110045714D02*
X65334494Y-110712380D01*
X65405922Y-110140952D02*
X65459494Y-110093333D01*
X65560684Y-110045714D01*
X65703541Y-110045714D01*
X65792827Y-110093333D01*
X65828541Y-110188571D01*
X65763065Y-110712380D01*
X66667827Y-110712380D02*
X66792827Y-109712380D01*
X66673779Y-110664761D02*
X66572589Y-110712380D01*
X66382113Y-110712380D01*
X66292827Y-110664761D01*
X66251160Y-110617142D01*
X66215446Y-110521904D01*
X66251160Y-110236190D01*
X66310684Y-110140952D01*
X66364255Y-110093333D01*
X66465446Y-110045714D01*
X66655922Y-110045714D01*
X66745208Y-110093333D01*
X67144017Y-110712380D02*
X67227351Y-110045714D01*
X67269017Y-109712380D02*
X67215446Y-109760000D01*
X67257113Y-109807619D01*
X67310684Y-109760000D01*
X67269017Y-109712380D01*
X67257113Y-109807619D01*
X68054732Y-110664761D02*
X67953541Y-110712380D01*
X67763065Y-110712380D01*
X67673779Y-110664761D01*
X67632113Y-110617142D01*
X67596398Y-110521904D01*
X67632113Y-110236190D01*
X67691636Y-110140952D01*
X67745208Y-110093333D01*
X67846398Y-110045714D01*
X68036875Y-110045714D01*
X68126160Y-110093333D01*
X68905922Y-110712380D02*
X68971398Y-110188571D01*
X68935684Y-110093333D01*
X68846398Y-110045714D01*
X68655922Y-110045714D01*
X68554732Y-110093333D01*
X68911875Y-110664761D02*
X68810684Y-110712380D01*
X68572589Y-110712380D01*
X68483303Y-110664761D01*
X68447589Y-110569523D01*
X68459494Y-110474285D01*
X68519017Y-110379047D01*
X68620208Y-110331428D01*
X68858303Y-110331428D01*
X68959494Y-110283809D01*
X69322589Y-110045714D02*
X69703541Y-110045714D01*
X69507113Y-109712380D02*
X69399970Y-110569523D01*
X69435684Y-110664761D01*
X69524970Y-110712380D01*
X69620208Y-110712380D01*
X70096398Y-110712380D02*
X70007113Y-110664761D01*
X69965446Y-110617142D01*
X69929732Y-110521904D01*
X69965446Y-110236190D01*
X70024970Y-110140952D01*
X70078541Y-110093333D01*
X70179732Y-110045714D01*
X70322589Y-110045714D01*
X70411875Y-110093333D01*
X70453541Y-110140952D01*
X70489255Y-110236190D01*
X70453541Y-110521904D01*
X70394017Y-110617142D01*
X70340446Y-110664761D01*
X70239255Y-110712380D01*
X70096398Y-110712380D01*
X70858303Y-110712380D02*
X70941636Y-110045714D01*
X70917827Y-110236190D02*
X70977351Y-110140952D01*
X71030922Y-110093333D01*
X71132113Y-110045714D01*
X71227351Y-110045714D01*
X72715446Y-110712380D02*
X72239255Y-110712380D01*
X72364255Y-109712380D01*
X73114255Y-110188571D02*
X73447589Y-110188571D01*
X73524970Y-110712380D02*
X73048779Y-110712380D01*
X73173779Y-109712380D01*
X73649970Y-109712380D01*
X73953541Y-110712380D02*
X74078541Y-109712380D01*
X74316636Y-109712380D01*
X74453541Y-109760000D01*
X74536875Y-109855238D01*
X74572589Y-109950476D01*
X74596398Y-110140952D01*
X74578541Y-110283809D01*
X74507113Y-110474285D01*
X74447589Y-110569523D01*
X74340446Y-110664761D01*
X74191636Y-110712380D01*
X73953541Y-110712380D01*
X248070535Y-143747619D02*
X248118154Y-143700000D01*
X248213392Y-143652380D01*
X248451488Y-143652380D01*
X248546726Y-143700000D01*
X248594345Y-143747619D01*
X248641964Y-143842857D01*
X248641964Y-143938095D01*
X248594345Y-144080952D01*
X248022916Y-144652380D01*
X248641964Y-144652380D01*
X179014285Y-146747619D02*
X179061904Y-146700000D01*
X179157142Y-146652380D01*
X179395238Y-146652380D01*
X179490476Y-146700000D01*
X179538095Y-146747619D01*
X179585714Y-146842857D01*
X179585714Y-146938095D01*
X179538095Y-147080952D01*
X178966666Y-147652380D01*
X179585714Y-147652380D01*
X68405357Y-106552380D02*
X67833928Y-106552380D01*
X68119642Y-106552380D02*
X68119642Y-105552380D01*
X68024404Y-105695238D01*
X67929166Y-105790476D01*
X67833928Y-105838095D01*
X68833928Y-106457142D02*
X68881547Y-106504761D01*
X68833928Y-106552380D01*
X68786309Y-106504761D01*
X68833928Y-106457142D01*
X68833928Y-106552380D01*
X69214880Y-105552380D02*
X69881547Y-105552380D01*
X69452976Y-106552380D01*
X70738690Y-105552380D02*
X70262500Y-105552380D01*
X70214880Y-106028571D01*
X70262500Y-105980952D01*
X70357738Y-105933333D01*
X70595833Y-105933333D01*
X70691071Y-105980952D01*
X70738690Y-106028571D01*
X70786309Y-106123809D01*
X70786309Y-106361904D01*
X70738690Y-106457142D01*
X70691071Y-106504761D01*
X70595833Y-106552380D01*
X70357738Y-106552380D01*
X70262500Y-106504761D01*
X70214880Y-106457142D01*
X71643452Y-105885714D02*
X71643452Y-106552380D01*
X71214880Y-105885714D02*
X71214880Y-106409523D01*
X71262500Y-106504761D01*
X71357738Y-106552380D01*
X71500595Y-106552380D01*
X71595833Y-106504761D01*
X71643452Y-106457142D01*
X129960714Y-129397380D02*
X129770238Y-129397380D01*
X129675000Y-129445000D01*
X129627380Y-129492619D01*
X129532142Y-129635476D01*
X129484523Y-129825952D01*
X129484523Y-130206904D01*
X129532142Y-130302142D01*
X129579761Y-130349761D01*
X129675000Y-130397380D01*
X129865476Y-130397380D01*
X129960714Y-130349761D01*
X130008333Y-130302142D01*
X130055952Y-130206904D01*
X130055952Y-129968809D01*
X130008333Y-129873571D01*
X129960714Y-129825952D01*
X129865476Y-129778333D01*
X129675000Y-129778333D01*
X129579761Y-129825952D01*
X129532142Y-129873571D01*
X129484523Y-129968809D01*
X130913095Y-129730714D02*
X130913095Y-130397380D01*
X130484523Y-129730714D02*
X130484523Y-130254523D01*
X130532142Y-130349761D01*
X130627380Y-130397380D01*
X130770238Y-130397380D01*
X130865476Y-130349761D01*
X130913095Y-130302142D01*
X132103571Y-129349761D02*
X131246428Y-130635476D01*
X132341666Y-129397380D02*
X132960714Y-129397380D01*
X132627380Y-129778333D01*
X132770238Y-129778333D01*
X132865476Y-129825952D01*
X132913095Y-129873571D01*
X132960714Y-129968809D01*
X132960714Y-130206904D01*
X132913095Y-130302142D01*
X132865476Y-130349761D01*
X132770238Y-130397380D01*
X132484523Y-130397380D01*
X132389285Y-130349761D01*
X132341666Y-130302142D01*
X133817857Y-129730714D02*
X133817857Y-130397380D01*
X133389285Y-129730714D02*
X133389285Y-130254523D01*
X133436904Y-130349761D01*
X133532142Y-130397380D01*
X133675000Y-130397380D01*
X133770238Y-130349761D01*
X133817857Y-130302142D01*
X74977678Y-129952619D02*
X75025297Y-129905000D01*
X75120535Y-129857380D01*
X75358630Y-129857380D01*
X75453869Y-129905000D01*
X75501488Y-129952619D01*
X75549107Y-130047857D01*
X75549107Y-130143095D01*
X75501488Y-130285952D01*
X74930059Y-130857380D01*
X75549107Y-130857380D01*
X75977678Y-130762142D02*
X76025297Y-130809761D01*
X75977678Y-130857380D01*
X75930059Y-130809761D01*
X75977678Y-130762142D01*
X75977678Y-130857380D01*
X76406250Y-129952619D02*
X76453869Y-129905000D01*
X76549107Y-129857380D01*
X76787202Y-129857380D01*
X76882440Y-129905000D01*
X76930059Y-129952619D01*
X76977678Y-130047857D01*
X76977678Y-130143095D01*
X76930059Y-130285952D01*
X76358630Y-130857380D01*
X76977678Y-130857380D01*
X77882440Y-129857380D02*
X77406250Y-129857380D01*
X77358630Y-130333571D01*
X77406250Y-130285952D01*
X77501488Y-130238333D01*
X77739583Y-130238333D01*
X77834821Y-130285952D01*
X77882440Y-130333571D01*
X77930059Y-130428809D01*
X77930059Y-130666904D01*
X77882440Y-130762142D01*
X77834821Y-130809761D01*
X77739583Y-130857380D01*
X77501488Y-130857380D01*
X77406250Y-130809761D01*
X77358630Y-130762142D01*
X78787202Y-130190714D02*
X78787202Y-130857380D01*
X78358630Y-130190714D02*
X78358630Y-130714523D01*
X78406250Y-130809761D01*
X78501488Y-130857380D01*
X78644345Y-130857380D01*
X78739583Y-130809761D01*
X78787202Y-130762142D01*
X224734226Y-143985714D02*
X224734226Y-144652380D01*
X224496130Y-143604761D02*
X224258035Y-144319047D01*
X224877083Y-144319047D01*
X70048214Y-144652380D02*
X69476785Y-144652380D01*
X69762500Y-144652380D02*
X69762500Y-143652380D01*
X69667261Y-143795238D01*
X69572023Y-143890476D01*
X69476785Y-143938095D01*
X260095833Y-125602380D02*
X259524404Y-125602380D01*
X259810119Y-125602380D02*
X259810119Y-124602380D01*
X259714880Y-124745238D01*
X259619642Y-124840476D01*
X259524404Y-124888095D01*
X260952976Y-124935714D02*
X260952976Y-125602380D01*
X260524404Y-124935714D02*
X260524404Y-125459523D01*
X260572023Y-125554761D01*
X260667261Y-125602380D01*
X260810119Y-125602380D01*
X260905357Y-125554761D01*
X260952976Y-125507142D01*
X64952380Y-143652380D02*
X65047619Y-143652380D01*
X65142857Y-143700000D01*
X65190476Y-143747619D01*
X65238095Y-143842857D01*
X65285714Y-144033333D01*
X65285714Y-144271428D01*
X65238095Y-144461904D01*
X65190476Y-144557142D01*
X65142857Y-144604761D01*
X65047619Y-144652380D01*
X64952380Y-144652380D01*
X64857142Y-144604761D01*
X64809523Y-144557142D01*
X64761904Y-144461904D01*
X64714285Y-144271428D01*
X64714285Y-144033333D01*
X64761904Y-143842857D01*
X64809523Y-143747619D01*
X64857142Y-143700000D01*
X64952380Y-143652380D01*
X287956547Y-87502380D02*
X287385119Y-87502380D01*
X287670833Y-87502380D02*
X287670833Y-86502380D01*
X287575595Y-86645238D01*
X287480357Y-86740476D01*
X287385119Y-86788095D01*
X288385119Y-87407142D02*
X288432738Y-87454761D01*
X288385119Y-87502380D01*
X288337500Y-87454761D01*
X288385119Y-87407142D01*
X288385119Y-87502380D01*
X289337500Y-86502380D02*
X288861309Y-86502380D01*
X288813690Y-86978571D01*
X288861309Y-86930952D01*
X288956547Y-86883333D01*
X289194642Y-86883333D01*
X289289880Y-86930952D01*
X289337500Y-86978571D01*
X289385119Y-87073809D01*
X289385119Y-87311904D01*
X289337500Y-87407142D01*
X289289880Y-87454761D01*
X289194642Y-87502380D01*
X288956547Y-87502380D01*
X288861309Y-87454761D01*
X288813690Y-87407142D01*
X290242261Y-86835714D02*
X290242261Y-87502380D01*
X289813690Y-86835714D02*
X289813690Y-87359523D01*
X289861309Y-87454761D01*
X289956547Y-87502380D01*
X290099404Y-87502380D01*
X290194642Y-87454761D01*
X290242261Y-87407142D01*
X84002380Y-143652380D02*
X84097619Y-143652380D01*
X84192857Y-143700000D01*
X84240476Y-143747619D01*
X84288095Y-143842857D01*
X84335714Y-144033333D01*
X84335714Y-144271428D01*
X84288095Y-144461904D01*
X84240476Y-144557142D01*
X84192857Y-144604761D01*
X84097619Y-144652380D01*
X84002380Y-144652380D01*
X83907142Y-144604761D01*
X83859523Y-144557142D01*
X83811904Y-144461904D01*
X83764285Y-144271428D01*
X83764285Y-144033333D01*
X83811904Y-143842857D01*
X83859523Y-143747619D01*
X83907142Y-143700000D01*
X84002380Y-143652380D01*
X298702380Y-94528750D02*
X297702380Y-94528750D01*
X298654761Y-94100178D02*
X298702380Y-93957321D01*
X298702380Y-93719226D01*
X298654761Y-93623988D01*
X298607142Y-93576369D01*
X298511904Y-93528750D01*
X298416666Y-93528750D01*
X298321428Y-93576369D01*
X298273809Y-93623988D01*
X298226190Y-93719226D01*
X298178571Y-93909702D01*
X298130952Y-94004940D01*
X298083333Y-94052559D01*
X297988095Y-94100178D01*
X297892857Y-94100178D01*
X297797619Y-94052559D01*
X297750000Y-94004940D01*
X297702380Y-93909702D01*
X297702380Y-93671607D01*
X297750000Y-93528750D01*
X297702380Y-92909702D02*
X297702380Y-92719226D01*
X297750000Y-92623988D01*
X297845238Y-92528750D01*
X298035714Y-92481130D01*
X298369047Y-92481130D01*
X298559523Y-92528750D01*
X298654761Y-92623988D01*
X298702380Y-92719226D01*
X298702380Y-92909702D01*
X298654761Y-93004940D01*
X298559523Y-93100178D01*
X298369047Y-93147797D01*
X298035714Y-93147797D01*
X297845238Y-93100178D01*
X297750000Y-93004940D01*
X297702380Y-92909702D01*
X66024107Y-125602380D02*
X65452678Y-125602380D01*
X65738392Y-125602380D02*
X65738392Y-124602380D01*
X65643154Y-124745238D01*
X65547916Y-124840476D01*
X65452678Y-124888095D01*
X66452678Y-125507142D02*
X66500297Y-125554761D01*
X66452678Y-125602380D01*
X66405059Y-125554761D01*
X66452678Y-125507142D01*
X66452678Y-125602380D01*
X66881250Y-124697619D02*
X66928869Y-124650000D01*
X67024107Y-124602380D01*
X67262202Y-124602380D01*
X67357440Y-124650000D01*
X67405059Y-124697619D01*
X67452678Y-124792857D01*
X67452678Y-124888095D01*
X67405059Y-125030952D01*
X66833630Y-125602380D01*
X67452678Y-125602380D01*
X68357440Y-124602380D02*
X67881250Y-124602380D01*
X67833630Y-125078571D01*
X67881250Y-125030952D01*
X67976488Y-124983333D01*
X68214583Y-124983333D01*
X68309821Y-125030952D01*
X68357440Y-125078571D01*
X68405059Y-125173809D01*
X68405059Y-125411904D01*
X68357440Y-125507142D01*
X68309821Y-125554761D01*
X68214583Y-125602380D01*
X67976488Y-125602380D01*
X67881250Y-125554761D01*
X67833630Y-125507142D01*
X69262202Y-124935714D02*
X69262202Y-125602380D01*
X68833630Y-124935714D02*
X68833630Y-125459523D01*
X68881250Y-125554761D01*
X68976488Y-125602380D01*
X69119345Y-125602380D01*
X69214583Y-125554761D01*
X69262202Y-125507142D01*
X64523809Y-68357142D02*
X64571428Y-68404761D01*
X64523809Y-68452380D01*
X64476190Y-68404761D01*
X64523809Y-68357142D01*
X64523809Y-68452380D01*
X65000000Y-68357142D02*
X65047619Y-68404761D01*
X65000000Y-68452380D01*
X64952380Y-68404761D01*
X65000000Y-68357142D01*
X65000000Y-68452380D01*
X65476190Y-68357142D02*
X65523809Y-68404761D01*
X65476190Y-68452380D01*
X65428571Y-68404761D01*
X65476190Y-68357142D01*
X65476190Y-68452380D01*
X88526785Y-143747619D02*
X88574404Y-143700000D01*
X88669642Y-143652380D01*
X88907738Y-143652380D01*
X89002976Y-143700000D01*
X89050595Y-143747619D01*
X89098214Y-143842857D01*
X89098214Y-143938095D01*
X89050595Y-144080952D01*
X88479166Y-144652380D01*
X89098214Y-144652380D01*
X269501785Y-143747619D02*
X269549404Y-143700000D01*
X269644642Y-143652380D01*
X269882738Y-143652380D01*
X269977976Y-143700000D01*
X270025595Y-143747619D01*
X270073214Y-143842857D01*
X270073214Y-143938095D01*
X270025595Y-144080952D01*
X269454166Y-144652380D01*
X270073214Y-144652380D01*
X88645833Y-125602380D02*
X88074404Y-125602380D01*
X88360119Y-125602380D02*
X88360119Y-124602380D01*
X88264880Y-124745238D01*
X88169642Y-124840476D01*
X88074404Y-124888095D01*
X89502976Y-124935714D02*
X89502976Y-125602380D01*
X89074404Y-124935714D02*
X89074404Y-125459523D01*
X89122023Y-125554761D01*
X89217261Y-125602380D01*
X89360119Y-125602380D01*
X89455357Y-125554761D01*
X89502976Y-125507142D01*
X279765178Y-110902619D02*
X279812797Y-110855000D01*
X279908035Y-110807380D01*
X280146130Y-110807380D01*
X280241369Y-110855000D01*
X280288988Y-110902619D01*
X280336607Y-110997857D01*
X280336607Y-111093095D01*
X280288988Y-111235952D01*
X279717559Y-111807380D01*
X280336607Y-111807380D01*
X280765178Y-111712142D02*
X280812797Y-111759761D01*
X280765178Y-111807380D01*
X280717559Y-111759761D01*
X280765178Y-111712142D01*
X280765178Y-111807380D01*
X281193750Y-110902619D02*
X281241369Y-110855000D01*
X281336607Y-110807380D01*
X281574702Y-110807380D01*
X281669940Y-110855000D01*
X281717559Y-110902619D01*
X281765178Y-110997857D01*
X281765178Y-111093095D01*
X281717559Y-111235952D01*
X281146130Y-111807380D01*
X281765178Y-111807380D01*
X282669940Y-110807380D02*
X282193750Y-110807380D01*
X282146130Y-111283571D01*
X282193750Y-111235952D01*
X282288988Y-111188333D01*
X282527083Y-111188333D01*
X282622321Y-111235952D01*
X282669940Y-111283571D01*
X282717559Y-111378809D01*
X282717559Y-111616904D01*
X282669940Y-111712142D01*
X282622321Y-111759761D01*
X282527083Y-111807380D01*
X282288988Y-111807380D01*
X282193750Y-111759761D01*
X282146130Y-111712142D01*
X283574702Y-111140714D02*
X283574702Y-111807380D01*
X283146130Y-111140714D02*
X283146130Y-111664523D01*
X283193750Y-111759761D01*
X283288988Y-111807380D01*
X283431845Y-111807380D01*
X283527083Y-111759761D01*
X283574702Y-111712142D01*
X168989285Y-129397380D02*
X169608333Y-129397380D01*
X169275000Y-129778333D01*
X169417857Y-129778333D01*
X169513095Y-129825952D01*
X169560714Y-129873571D01*
X169608333Y-129968809D01*
X169608333Y-130206904D01*
X169560714Y-130302142D01*
X169513095Y-130349761D01*
X169417857Y-130397380D01*
X169132142Y-130397380D01*
X169036904Y-130349761D01*
X168989285Y-130302142D01*
X170465476Y-129730714D02*
X170465476Y-130397380D01*
X170036904Y-129730714D02*
X170036904Y-130254523D01*
X170084523Y-130349761D01*
X170179761Y-130397380D01*
X170322619Y-130397380D01*
X170417857Y-130349761D01*
X170465476Y-130302142D01*
X188539285Y-143747619D02*
X188586904Y-143700000D01*
X188682142Y-143652380D01*
X188920238Y-143652380D01*
X189015476Y-143700000D01*
X189063095Y-143747619D01*
X189110714Y-143842857D01*
X189110714Y-143938095D01*
X189063095Y-144080952D01*
X188491666Y-144652380D01*
X189110714Y-144652380D01*
X269620833Y-106552380D02*
X269049404Y-106552380D01*
X269335119Y-106552380D02*
X269335119Y-105552380D01*
X269239880Y-105695238D01*
X269144642Y-105790476D01*
X269049404Y-105838095D01*
X270477976Y-105885714D02*
X270477976Y-106552380D01*
X270049404Y-105885714D02*
X270049404Y-106409523D01*
X270097023Y-106504761D01*
X270192261Y-106552380D01*
X270335119Y-106552380D01*
X270430357Y-106504761D01*
X270477976Y-106457142D01*
X67095535Y-143747619D02*
X67143154Y-143700000D01*
X67238392Y-143652380D01*
X67476488Y-143652380D01*
X67571726Y-143700000D01*
X67619345Y-143747619D01*
X67666964Y-143842857D01*
X67666964Y-143938095D01*
X67619345Y-144080952D01*
X67047916Y-144652380D01*
X67666964Y-144652380D01*
X134246726Y-143985714D02*
X134246726Y-144652380D01*
X134008630Y-143604761D02*
X133770535Y-144319047D01*
X134389583Y-144319047D01*
X289861607Y-106552380D02*
X289290178Y-106552380D01*
X289575892Y-106552380D02*
X289575892Y-105552380D01*
X289480654Y-105695238D01*
X289385416Y-105790476D01*
X289290178Y-105838095D01*
X290290178Y-106457142D02*
X290337797Y-106504761D01*
X290290178Y-106552380D01*
X290242559Y-106504761D01*
X290290178Y-106457142D01*
X290290178Y-106552380D01*
X290718750Y-105647619D02*
X290766369Y-105600000D01*
X290861607Y-105552380D01*
X291099702Y-105552380D01*
X291194940Y-105600000D01*
X291242559Y-105647619D01*
X291290178Y-105742857D01*
X291290178Y-105838095D01*
X291242559Y-105980952D01*
X290671130Y-106552380D01*
X291290178Y-106552380D01*
X292194940Y-105552380D02*
X291718750Y-105552380D01*
X291671130Y-106028571D01*
X291718750Y-105980952D01*
X291813988Y-105933333D01*
X292052083Y-105933333D01*
X292147321Y-105980952D01*
X292194940Y-106028571D01*
X292242559Y-106123809D01*
X292242559Y-106361904D01*
X292194940Y-106457142D01*
X292147321Y-106504761D01*
X292052083Y-106552380D01*
X291813988Y-106552380D01*
X291718750Y-106504761D01*
X291671130Y-106457142D01*
X293099702Y-105885714D02*
X293099702Y-106552380D01*
X292671130Y-105885714D02*
X292671130Y-106409523D01*
X292718750Y-106504761D01*
X292813988Y-106552380D01*
X292956845Y-106552380D01*
X293052083Y-106504761D01*
X293099702Y-106457142D01*
X225210714Y-129397380D02*
X225020238Y-129397380D01*
X224925000Y-129445000D01*
X224877380Y-129492619D01*
X224782142Y-129635476D01*
X224734523Y-129825952D01*
X224734523Y-130206904D01*
X224782142Y-130302142D01*
X224829761Y-130349761D01*
X224925000Y-130397380D01*
X225115476Y-130397380D01*
X225210714Y-130349761D01*
X225258333Y-130302142D01*
X225305952Y-130206904D01*
X225305952Y-129968809D01*
X225258333Y-129873571D01*
X225210714Y-129825952D01*
X225115476Y-129778333D01*
X224925000Y-129778333D01*
X224829761Y-129825952D01*
X224782142Y-129873571D01*
X224734523Y-129968809D01*
X226163095Y-129730714D02*
X226163095Y-130397380D01*
X225734523Y-129730714D02*
X225734523Y-130254523D01*
X225782142Y-130349761D01*
X225877380Y-130397380D01*
X226020238Y-130397380D01*
X226115476Y-130349761D01*
X226163095Y-130302142D01*
X227353571Y-129349761D02*
X226496428Y-130635476D01*
X227591666Y-129397380D02*
X228210714Y-129397380D01*
X227877380Y-129778333D01*
X228020238Y-129778333D01*
X228115476Y-129825952D01*
X228163095Y-129873571D01*
X228210714Y-129968809D01*
X228210714Y-130206904D01*
X228163095Y-130302142D01*
X228115476Y-130349761D01*
X228020238Y-130397380D01*
X227734523Y-130397380D01*
X227639285Y-130349761D01*
X227591666Y-130302142D01*
X229067857Y-129730714D02*
X229067857Y-130397380D01*
X228639285Y-129730714D02*
X228639285Y-130254523D01*
X228686904Y-130349761D01*
X228782142Y-130397380D01*
X228925000Y-130397380D01*
X229020238Y-130349761D01*
X229067857Y-130302142D01*
X290933035Y-143747619D02*
X290980654Y-143700000D01*
X291075892Y-143652380D01*
X291313988Y-143652380D01*
X291409226Y-143700000D01*
X291456845Y-143747619D01*
X291504464Y-143842857D01*
X291504464Y-143938095D01*
X291456845Y-144080952D01*
X290885416Y-144652380D01*
X291504464Y-144652380D01*
X255452380Y-143652380D02*
X255547619Y-143652380D01*
X255642857Y-143700000D01*
X255690476Y-143747619D01*
X255738095Y-143842857D01*
X255785714Y-144033333D01*
X255785714Y-144271428D01*
X255738095Y-144461904D01*
X255690476Y-144557142D01*
X255642857Y-144604761D01*
X255547619Y-144652380D01*
X255452380Y-144652380D01*
X255357142Y-144604761D01*
X255309523Y-144557142D01*
X255261904Y-144461904D01*
X255214285Y-144271428D01*
X255214285Y-144033333D01*
X255261904Y-143842857D01*
X255309523Y-143747619D01*
X255357142Y-143700000D01*
X255452380Y-143652380D01*
X274502380Y-143652380D02*
X274597619Y-143652380D01*
X274692857Y-143700000D01*
X274740476Y-143747619D01*
X274788095Y-143842857D01*
X274835714Y-144033333D01*
X274835714Y-144271428D01*
X274788095Y-144461904D01*
X274740476Y-144557142D01*
X274692857Y-144604761D01*
X274597619Y-144652380D01*
X274502380Y-144652380D01*
X274407142Y-144604761D01*
X274359523Y-144557142D01*
X274311904Y-144461904D01*
X274264285Y-144271428D01*
X274264285Y-144033333D01*
X274311904Y-143842857D01*
X274359523Y-143747619D01*
X274407142Y-143700000D01*
X274502380Y-143652380D01*
X289123214Y-144652380D02*
X288551785Y-144652380D01*
X288837500Y-144652380D02*
X288837500Y-143652380D01*
X288742261Y-143795238D01*
X288647023Y-143890476D01*
X288551785Y-143938095D01*
X179252380Y-143652380D02*
X179347619Y-143652380D01*
X179442857Y-143700000D01*
X179490476Y-143747619D01*
X179538095Y-143842857D01*
X179585714Y-144033333D01*
X179585714Y-144271428D01*
X179538095Y-144461904D01*
X179490476Y-144557142D01*
X179442857Y-144604761D01*
X179347619Y-144652380D01*
X179252380Y-144652380D01*
X179157142Y-144604761D01*
X179109523Y-144557142D01*
X179061904Y-144461904D01*
X179014285Y-144271428D01*
X179014285Y-144033333D01*
X179061904Y-143842857D01*
X179109523Y-143747619D01*
X179157142Y-143700000D01*
X179252380Y-143652380D01*
X293552380Y-143652380D02*
X293647619Y-143652380D01*
X293742857Y-143700000D01*
X293790476Y-143747619D01*
X293838095Y-143842857D01*
X293885714Y-144033333D01*
X293885714Y-144271428D01*
X293838095Y-144461904D01*
X293790476Y-144557142D01*
X293742857Y-144604761D01*
X293647619Y-144652380D01*
X293552380Y-144652380D01*
X293457142Y-144604761D01*
X293409523Y-144557142D01*
X293361904Y-144461904D01*
X293314285Y-144271428D01*
X293314285Y-144033333D01*
X293361904Y-143842857D01*
X293409523Y-143747619D01*
X293457142Y-143700000D01*
X293552380Y-143652380D01*
X121364285Y-129397380D02*
X122030952Y-129397380D01*
X121602380Y-130397380D01*
X122840476Y-129730714D02*
X122840476Y-130397380D01*
X122411904Y-129730714D02*
X122411904Y-130254523D01*
X122459523Y-130349761D01*
X122554761Y-130397380D01*
X122697619Y-130397380D01*
X122792857Y-130349761D01*
X122840476Y-130302142D01*
%LPC*%
D11*
%TO.C,MX3-B0*%
X62301250Y-122150000D03*
D12*
X67381250Y-122150000D03*
D11*
X72461250Y-122150000D03*
%TD*%
D12*
%TO.C,MX4-7_2*%
X188825000Y-141200000D03*
D11*
X183745000Y-141200000D03*
X193905000Y-141200000D03*
%TD*%
%TO.C,MX3-2*%
X102782500Y-122150000D03*
D12*
X107862500Y-122150000D03*
D11*
X112942500Y-122150000D03*
%TD*%
%TO.C,MX3-13*%
X341542500Y-122150000D03*
X331382500Y-122150000D03*
D12*
X336462500Y-122150000D03*
%TD*%
%TO.C,ST-2_0*%
X226925000Y-132945000D03*
D13*
X226925000Y-148185000D03*
X131675000Y-148185000D03*
D12*
X131675000Y-132945000D03*
%TD*%
D11*
%TO.C,MX0-8*%
X241530000Y-60237500D03*
D12*
X236450000Y-60237500D03*
D11*
X231370000Y-60237500D03*
%TD*%
D12*
%TO.C,MX4-0_1*%
X69762500Y-141200000D03*
D11*
X74842500Y-141200000D03*
X64682500Y-141200000D03*
%TD*%
D12*
%TO.C,MX4-0_2*%
X67381250Y-141200000D03*
D11*
X72461250Y-141200000D03*
X62301250Y-141200000D03*
%TD*%
%TO.C,MX2-10*%
X274867500Y-103100000D03*
D12*
X269787500Y-103100000D03*
D11*
X264707500Y-103100000D03*
%TD*%
%TO.C,MX4-7_4*%
X201048750Y-141200000D03*
D12*
X195968750Y-141200000D03*
D11*
X190888750Y-141200000D03*
%TD*%
%TO.C,MX1-7*%
X212955000Y-84050000D03*
X202795000Y-84050000D03*
D12*
X207875000Y-84050000D03*
%TD*%
D11*
%TO.C,MX0-14*%
X360592500Y-60237500D03*
D12*
X355512500Y-60237500D03*
D11*
X350432500Y-60237500D03*
%TD*%
%TO.C,MX4-4_4*%
X167711250Y-141200000D03*
D12*
X162631250Y-141200000D03*
D11*
X157551250Y-141200000D03*
%TD*%
D12*
%TO.C,MX0-2*%
X103100000Y-65000000D03*
D11*
X98020000Y-65000000D03*
X108180000Y-65000000D03*
%TD*%
D13*
%TO.C,ST-B1*%
X65000000Y-115165000D03*
X88812500Y-115165000D03*
D12*
X88812500Y-130405000D03*
X65000000Y-130405000D03*
%TD*%
D11*
%TO.C,MX0-13*%
X331382500Y-60237500D03*
D12*
X336462500Y-60237500D03*
D11*
X341542500Y-60237500D03*
%TD*%
D12*
%TO.C,MX0-3*%
X122150000Y-65000000D03*
D11*
X127230000Y-65000000D03*
X117070000Y-65000000D03*
%TD*%
D12*
%TO.C,MX0-9*%
X255500000Y-60237500D03*
D11*
X260580000Y-60237500D03*
X250420000Y-60237500D03*
%TD*%
%TO.C,MX4-10_0*%
X269470000Y-141200000D03*
X279630000Y-141200000D03*
D12*
X274550000Y-141200000D03*
%TD*%
D11*
%TO.C,MX1-14*%
X350432500Y-79287500D03*
D12*
X355512500Y-79287500D03*
D11*
X360592500Y-79287500D03*
%TD*%
%TO.C,MX3-3*%
X121832500Y-122150000D03*
X131992500Y-122150000D03*
D12*
X126912500Y-122150000D03*
%TD*%
%TO.C,ST-A2*%
X282963750Y-81668750D03*
D13*
X298203750Y-105481250D03*
X298203750Y-81668750D03*
D12*
X282963750Y-105481250D03*
%TD*%
D13*
%TO.C,ST-3_0*%
X169775000Y-148185000D03*
D12*
X131675000Y-132945000D03*
X169775000Y-132945000D03*
D13*
X131675000Y-148185000D03*
%TD*%
D12*
%TO.C,MX1-8*%
X226925000Y-84050000D03*
D11*
X232005000Y-84050000D03*
X221845000Y-84050000D03*
%TD*%
%TO.C,MX1-13*%
X331382500Y-79287500D03*
X341542500Y-79287500D03*
D12*
X336462500Y-79287500D03*
%TD*%
D11*
%TO.C,MX1-6*%
X183745000Y-84050000D03*
D12*
X188825000Y-84050000D03*
D11*
X193905000Y-84050000D03*
%TD*%
D12*
%TO.C,MX4-1_2*%
X88812500Y-141200000D03*
D11*
X83732500Y-141200000D03*
X93892500Y-141200000D03*
%TD*%
D12*
%TO.C,ST-3_1*%
X226925000Y-132945000D03*
X188825000Y-132945000D03*
D13*
X188825000Y-148185000D03*
X226925000Y-148185000D03*
%TD*%
D11*
%TO.C,MX4-4_0*%
X184380000Y-141200000D03*
D12*
X179300000Y-141200000D03*
D11*
X174220000Y-141200000D03*
%TD*%
D13*
%TO.C,ST-C1*%
X265025000Y-115165000D03*
D12*
X288837500Y-130405000D03*
X265025000Y-130405000D03*
D13*
X288837500Y-115165000D03*
%TD*%
D11*
%TO.C,MX2-A11*%
X276613750Y-103100000D03*
D12*
X281693750Y-103100000D03*
D11*
X286773750Y-103100000D03*
%TD*%
%TO.C,MX3-10*%
X255182500Y-122150000D03*
D12*
X260262500Y-122150000D03*
D11*
X265342500Y-122150000D03*
%TD*%
D12*
%TO.C,MX2-1*%
X98337500Y-103100000D03*
D11*
X103417500Y-103100000D03*
X93257500Y-103100000D03*
%TD*%
D12*
%TO.C,MX1-4*%
X150725000Y-84050000D03*
D11*
X155805000Y-84050000D03*
X145645000Y-84050000D03*
%TD*%
D13*
%TO.C,ST-0_0*%
X236450000Y-148185000D03*
X122150000Y-148185000D03*
D12*
X236450000Y-132945000D03*
X122150000Y-132945000D03*
%TD*%
D11*
%TO.C,MX4-3_4*%
X128976250Y-141200000D03*
D12*
X134056250Y-141200000D03*
D11*
X139136250Y-141200000D03*
%TD*%
%TO.C,MX3-9*%
X246292500Y-122150000D03*
X236132500Y-122150000D03*
D12*
X241212500Y-122150000D03*
%TD*%
%TO.C,MX4-2_2*%
X110243750Y-141200000D03*
D11*
X115323750Y-141200000D03*
X105163750Y-141200000D03*
%TD*%
%TO.C,MX1-12*%
X322492500Y-79287500D03*
D12*
X317412500Y-79287500D03*
D11*
X312332500Y-79287500D03*
%TD*%
D12*
%TO.C,MX3-A11*%
X276931250Y-122150000D03*
D11*
X282011250Y-122150000D03*
X271851250Y-122150000D03*
%TD*%
D12*
%TO.C,MX2-8*%
X231687500Y-103100000D03*
D11*
X226607500Y-103100000D03*
X236767500Y-103100000D03*
%TD*%
%TO.C,MX2-5*%
X169457500Y-103100000D03*
X179617500Y-103100000D03*
D12*
X174537500Y-103100000D03*
%TD*%
D11*
%TO.C,MX2-3*%
X131357500Y-103100000D03*
X141517500Y-103100000D03*
D12*
X136437500Y-103100000D03*
%TD*%
D11*
%TO.C,MX3-8*%
X227242500Y-122150000D03*
D12*
X222162500Y-122150000D03*
D11*
X217082500Y-122150000D03*
%TD*%
D12*
%TO.C,MX1-11*%
X288837500Y-84050000D03*
D11*
X293917500Y-84050000D03*
X283757500Y-84050000D03*
%TD*%
%TO.C,MX4-13*%
X341542500Y-141200000D03*
D12*
X336462500Y-141200000D03*
D11*
X331382500Y-141200000D03*
%TD*%
%TO.C,MX1-1*%
X88495000Y-84050000D03*
D12*
X93575000Y-84050000D03*
D11*
X98655000Y-84050000D03*
%TD*%
%TO.C,MX3-4*%
X151042500Y-122150000D03*
D12*
X145962500Y-122150000D03*
D11*
X140882500Y-122150000D03*
%TD*%
%TO.C,MX3-5*%
X170092500Y-122150000D03*
D12*
X165012500Y-122150000D03*
D11*
X159932500Y-122150000D03*
%TD*%
D12*
%TO.C,MX0-12*%
X317412500Y-60237500D03*
D11*
X322492500Y-60237500D03*
X312332500Y-60237500D03*
%TD*%
%TO.C,MX2-C11*%
X291218750Y-88495000D03*
D12*
X291218750Y-93575000D03*
D11*
X291218750Y-98655000D03*
%TD*%
D12*
%TO.C,MX4-9_2*%
X248356250Y-141200000D03*
D11*
X243276250Y-141200000D03*
X253436250Y-141200000D03*
%TD*%
%TO.C,MX4-4_3*%
X145645000Y-141200000D03*
D12*
X150725000Y-141200000D03*
D11*
X155805000Y-141200000D03*
%TD*%
D12*
%TO.C,ST-1_0*%
X112625000Y-132945000D03*
D13*
X245975000Y-148185000D03*
X112625000Y-148185000D03*
D12*
X245975000Y-132945000D03*
%TD*%
D11*
%TO.C,MX1-2*%
X107545000Y-84050000D03*
D12*
X112625000Y-84050000D03*
D11*
X117705000Y-84050000D03*
%TD*%
D12*
%TO.C,MX1-10*%
X265025000Y-84050000D03*
D11*
X259945000Y-84050000D03*
X270105000Y-84050000D03*
%TD*%
D12*
%TO.C,MX4-2_0*%
X103100000Y-141200000D03*
D11*
X98020000Y-141200000D03*
X108180000Y-141200000D03*
%TD*%
%TO.C,MX1-3*%
X126595000Y-84050000D03*
D12*
X131675000Y-84050000D03*
D11*
X136755000Y-84050000D03*
%TD*%
%TO.C,MX4-12*%
X312332500Y-141200000D03*
D12*
X317412500Y-141200000D03*
D11*
X322492500Y-141200000D03*
%TD*%
%TO.C,MX1-5*%
X164695000Y-84050000D03*
D12*
X169775000Y-84050000D03*
D11*
X174855000Y-84050000D03*
%TD*%
%TO.C,MX2-6*%
X188507500Y-103100000D03*
D12*
X193587500Y-103100000D03*
D11*
X198667500Y-103100000D03*
%TD*%
%TO.C,MX4-11_2*%
X286138750Y-141200000D03*
X296298750Y-141200000D03*
D12*
X291218750Y-141200000D03*
%TD*%
D11*
%TO.C,MX4-8_4*%
X229623750Y-141200000D03*
D12*
X224543750Y-141200000D03*
D11*
X219463750Y-141200000D03*
%TD*%
%TO.C,MX2-7*%
X217717500Y-103100000D03*
D12*
X212637500Y-103100000D03*
D11*
X207557500Y-103100000D03*
%TD*%
%TO.C,MX2-9*%
X255817500Y-103100000D03*
D12*
X250737500Y-103100000D03*
D11*
X245657500Y-103100000D03*
%TD*%
%TO.C,MX3-B11*%
X281376250Y-122150000D03*
X291536250Y-122150000D03*
D12*
X286456250Y-122150000D03*
%TD*%
%TO.C,MX4-11_0*%
X293600000Y-141200000D03*
D11*
X298680000Y-141200000D03*
X288520000Y-141200000D03*
%TD*%
%TO.C,MX4-1_0*%
X78970000Y-141200000D03*
X89130000Y-141200000D03*
D12*
X84050000Y-141200000D03*
%TD*%
D11*
%TO.C,MX4-10_2*%
X264707500Y-141200000D03*
D12*
X269787500Y-141200000D03*
D11*
X274867500Y-141200000D03*
%TD*%
D12*
%TO.C,ST-A1*%
X269787500Y-111355000D03*
X293600000Y-111355000D03*
D13*
X293600000Y-96115000D03*
X269787500Y-96115000D03*
%TD*%
D12*
%TO.C,MX0-5*%
X160250000Y-65000000D03*
D11*
X165330000Y-65000000D03*
X155170000Y-65000000D03*
%TD*%
%TO.C,MX4-11_1*%
X283757500Y-141200000D03*
D12*
X288837500Y-141200000D03*
D11*
X293917500Y-141200000D03*
%TD*%
%TO.C,MX0-1*%
X89130000Y-65000000D03*
D12*
X84050000Y-65000000D03*
D11*
X78970000Y-65000000D03*
%TD*%
%TO.C,MX3-1*%
X93892500Y-122150000D03*
X83732500Y-122150000D03*
D12*
X88812500Y-122150000D03*
%TD*%
D11*
%TO.C,MX3-7*%
X208192500Y-122150000D03*
D12*
X203112500Y-122150000D03*
D11*
X198032500Y-122150000D03*
%TD*%
%TO.C,MX0-6*%
X174220000Y-65000000D03*
X184380000Y-65000000D03*
D12*
X179300000Y-65000000D03*
%TD*%
D11*
%TO.C,MX2-B0*%
X62301250Y-103100000D03*
D12*
X67381250Y-103100000D03*
D11*
X72461250Y-103100000D03*
%TD*%
D12*
%TO.C,MX4-9_0*%
X255500000Y-141200000D03*
D11*
X260580000Y-141200000D03*
X250420000Y-141200000D03*
%TD*%
D12*
%TO.C,MX4-0_0*%
X65000000Y-141200000D03*
D11*
X59920000Y-141200000D03*
X70080000Y-141200000D03*
%TD*%
%TO.C,MX2-2*%
X112307500Y-103100000D03*
D12*
X117387500Y-103100000D03*
D11*
X122467500Y-103100000D03*
%TD*%
D12*
%TO.C,MX0-11*%
X293600000Y-60237500D03*
D11*
X288520000Y-60237500D03*
X298680000Y-60237500D03*
%TD*%
%TO.C,MX1-9*%
X251055000Y-84050000D03*
D12*
X245975000Y-84050000D03*
D11*
X240895000Y-84050000D03*
%TD*%
%TO.C,MX2-4*%
X160567500Y-103100000D03*
X150407500Y-103100000D03*
D12*
X155487500Y-103100000D03*
%TD*%
D11*
%TO.C,MX4-14*%
X360592500Y-141200000D03*
D12*
X355512500Y-141200000D03*
D11*
X350432500Y-141200000D03*
%TD*%
D12*
%TO.C,MX1-0*%
X69762500Y-84050000D03*
D11*
X74842500Y-84050000D03*
X64682500Y-84050000D03*
%TD*%
%TO.C,MX2-A0*%
X77223750Y-103100000D03*
D12*
X72143750Y-103100000D03*
D11*
X67063750Y-103100000D03*
%TD*%
%TO.C,MX3-A0*%
X81986250Y-122150000D03*
X71826250Y-122150000D03*
D12*
X76906250Y-122150000D03*
%TD*%
D11*
%TO.C,MX3-6*%
X178982500Y-122150000D03*
X189142500Y-122150000D03*
D12*
X184062500Y-122150000D03*
%TD*%
D11*
%TO.C,MX4-7_3*%
X212955000Y-141200000D03*
X202795000Y-141200000D03*
D12*
X207875000Y-141200000D03*
%TD*%
%TO.C,MX2-B11*%
X291218750Y-103100000D03*
D11*
X286138750Y-103100000D03*
X296298750Y-103100000D03*
%TD*%
D12*
%TO.C,MX0-0*%
X65000000Y-65000000D03*
D11*
X70080000Y-65000000D03*
X59920000Y-65000000D03*
%TD*%
%TO.C,MX0-10*%
X279630000Y-60237500D03*
X269470000Y-60237500D03*
D12*
X274550000Y-60237500D03*
%TD*%
%TO.C,MX0-4*%
X141200000Y-65000000D03*
D11*
X136120000Y-65000000D03*
X146280000Y-65000000D03*
%TD*%
D14*
%TO.C,USB1*%
X213138750Y-49612500D03*
X207358750Y-49612500D03*
D15*
X214568750Y-45962500D03*
D16*
X214568750Y-50142500D03*
X205928750Y-50142500D03*
D15*
X205928750Y-45962500D03*
%TD*%
M02*
